<mxfile host="app.diagrams.net" modified="2022-03-08T01:16:56.190Z" agent="5.0 (Windows NT 10.0; Win64; x64) AppleWebKit/537.36 (KHTML, like Gecko) Chrome/99.0.4844.51 Safari/537.36" etag="KUGvrmy4eTGVQ5lftqWG" version="16.6.7" type="github">
  <diagram id="C5RBs43oDa-KdzZeNtuy" name="Page-1">
    <mxGraphModel dx="806" dy="522" grid="1" gridSize="10" guides="1" tooltips="1" connect="1" arrows="1" fold="1" page="1" pageScale="1" pageWidth="827" pageHeight="1169" math="0" shadow="0">
      <root>
        <mxCell id="WIyWlLk6GJQsqaUBKTNV-0" />
        <mxCell id="WIyWlLk6GJQsqaUBKTNV-1" parent="WIyWlLk6GJQsqaUBKTNV-0" />
        <mxCell id="-kFRYqSdJhcsByOaOmzl-9" value="" style="shape=parallelogram;perimeter=parallelogramPerimeter;whiteSpace=wrap;html=1;fixedSize=1;strokeWidth=2;" parent="WIyWlLk6GJQsqaUBKTNV-1" vertex="1">
          <mxGeometry x="161" y="450" width="120" height="60" as="geometry" />
        </mxCell>
        <mxCell id="-kFRYqSdJhcsByOaOmzl-2" value="" style="strokeWidth=2;html=1;shape=mxgraph.flowchart.terminator;whiteSpace=wrap;" parent="WIyWlLk6GJQsqaUBKTNV-1" vertex="1">
          <mxGeometry x="171" y="270" width="100" height="60" as="geometry" />
        </mxCell>
        <mxCell id="-kFRYqSdJhcsByOaOmzl-5" value="Start" style="text;html=1;strokeColor=none;fillColor=none;align=center;verticalAlign=middle;whiteSpace=wrap;rounded=0;" parent="WIyWlLk6GJQsqaUBKTNV-1" vertex="1">
          <mxGeometry x="190.5" y="285" width="60" height="30" as="geometry" />
        </mxCell>
        <mxCell id="-kFRYqSdJhcsByOaOmzl-13" value="" style="verticalLabelPosition=bottom;verticalAlign=top;html=1;shape=hexagon;perimeter=hexagonPerimeter2;arcSize=6;size=0.27;strokeWidth=2;" parent="WIyWlLk6GJQsqaUBKTNV-1" vertex="1">
          <mxGeometry x="171" y="365" width="100" height="60" as="geometry" />
        </mxCell>
        <mxCell id="-kFRYqSdJhcsByOaOmzl-15" value="" style="rounded=0;html=1;jettySize=auto;orthogonalLoop=1;fontSize=11;endArrow=block;endFill=0;endSize=8;strokeWidth=1;shadow=0;labelBackgroundColor=none;edgeStyle=orthogonalEdgeStyle;exitX=0.5;exitY=1;exitDx=0;exitDy=0;exitPerimeter=0;entryX=0.5;entryY=0;entryDx=0;entryDy=0;" parent="WIyWlLk6GJQsqaUBKTNV-1" source="-kFRYqSdJhcsByOaOmzl-2" target="-kFRYqSdJhcsByOaOmzl-13" edge="1">
          <mxGeometry relative="1" as="geometry">
            <mxPoint x="220.76" y="340" as="sourcePoint" />
            <mxPoint x="221" y="370" as="targetPoint" />
          </mxGeometry>
        </mxCell>
        <mxCell id="-kFRYqSdJhcsByOaOmzl-16" value="input b, h" style="text;html=1;strokeColor=none;fillColor=none;align=center;verticalAlign=middle;whiteSpace=wrap;rounded=0;" parent="WIyWlLk6GJQsqaUBKTNV-1" vertex="1">
          <mxGeometry x="191" y="465" width="60" height="30" as="geometry" />
        </mxCell>
        <mxCell id="-kFRYqSdJhcsByOaOmzl-17" value="b = base&lt;br&gt;h = height" style="text;html=1;strokeColor=none;fillColor=none;align=center;verticalAlign=middle;whiteSpace=wrap;rounded=0;" parent="WIyWlLk6GJQsqaUBKTNV-1" vertex="1">
          <mxGeometry x="190.5" y="380" width="60" height="30" as="geometry" />
        </mxCell>
        <mxCell id="-kFRYqSdJhcsByOaOmzl-25" value="" style="rounded=0;whiteSpace=wrap;html=1;strokeWidth=2;" parent="WIyWlLk6GJQsqaUBKTNV-1" vertex="1">
          <mxGeometry x="161" y="550" width="120" height="60" as="geometry" />
        </mxCell>
        <mxCell id="-kFRYqSdJhcsByOaOmzl-29" value="A = 0.5*b*h" style="text;html=1;strokeColor=none;fillColor=none;align=center;verticalAlign=middle;whiteSpace=wrap;rounded=0;" parent="WIyWlLk6GJQsqaUBKTNV-1" vertex="1">
          <mxGeometry x="181" y="565" width="80" height="30" as="geometry" />
        </mxCell>
        <mxCell id="-kFRYqSdJhcsByOaOmzl-30" value="" style="rounded=0;html=1;jettySize=auto;orthogonalLoop=1;fontSize=11;endArrow=block;endFill=0;endSize=8;strokeWidth=1;shadow=0;labelBackgroundColor=none;edgeStyle=orthogonalEdgeStyle;exitX=0.5;exitY=1;exitDx=0;exitDy=0;entryX=0.5;entryY=0;entryDx=0;entryDy=0;" parent="WIyWlLk6GJQsqaUBKTNV-1" source="-kFRYqSdJhcsByOaOmzl-13" target="-kFRYqSdJhcsByOaOmzl-9" edge="1">
          <mxGeometry relative="1" as="geometry">
            <mxPoint x="220.9999999999999" y="520" as="sourcePoint" />
            <mxPoint x="231" y="470" as="targetPoint" />
          </mxGeometry>
        </mxCell>
        <mxCell id="-kFRYqSdJhcsByOaOmzl-31" value="" style="rounded=0;html=1;jettySize=auto;orthogonalLoop=1;fontSize=11;endArrow=block;endFill=0;endSize=8;strokeWidth=1;shadow=0;labelBackgroundColor=none;edgeStyle=orthogonalEdgeStyle;exitX=0.5;exitY=1;exitDx=0;exitDy=0;entryX=0.5;entryY=0;entryDx=0;entryDy=0;" parent="WIyWlLk6GJQsqaUBKTNV-1" source="-kFRYqSdJhcsByOaOmzl-9" target="-kFRYqSdJhcsByOaOmzl-25" edge="1">
          <mxGeometry relative="1" as="geometry">
            <mxPoint x="221" y="600" as="sourcePoint" />
            <mxPoint x="221.5" y="620" as="targetPoint" />
          </mxGeometry>
        </mxCell>
        <mxCell id="-kFRYqSdJhcsByOaOmzl-34" value="" style="rounded=0;html=1;jettySize=auto;orthogonalLoop=1;fontSize=11;endArrow=block;endFill=0;endSize=8;strokeWidth=1;shadow=0;labelBackgroundColor=none;edgeStyle=orthogonalEdgeStyle;exitX=0.5;exitY=1;exitDx=0;exitDy=0;entryX=0.5;entryY=0;entryDx=0;entryDy=0;" parent="WIyWlLk6GJQsqaUBKTNV-1" source="-kFRYqSdJhcsByOaOmzl-25" target="-kFRYqSdJhcsByOaOmzl-36" edge="1">
          <mxGeometry relative="1" as="geometry">
            <mxPoint x="231.5" y="530" as="sourcePoint" />
            <mxPoint x="222" y="630" as="targetPoint" />
          </mxGeometry>
        </mxCell>
        <mxCell id="-kFRYqSdJhcsByOaOmzl-36" value="" style="shape=parallelogram;perimeter=parallelogramPerimeter;whiteSpace=wrap;html=1;fixedSize=1;strokeWidth=2;" parent="WIyWlLk6GJQsqaUBKTNV-1" vertex="1">
          <mxGeometry x="161" y="640" width="120" height="60" as="geometry" />
        </mxCell>
        <mxCell id="-kFRYqSdJhcsByOaOmzl-38" value="output A" style="text;html=1;strokeColor=none;fillColor=none;align=center;verticalAlign=middle;whiteSpace=wrap;rounded=0;" parent="WIyWlLk6GJQsqaUBKTNV-1" vertex="1">
          <mxGeometry x="181.5" y="655" width="80" height="30" as="geometry" />
        </mxCell>
        <mxCell id="-kFRYqSdJhcsByOaOmzl-39" value="" style="strokeWidth=2;html=1;shape=mxgraph.flowchart.terminator;whiteSpace=wrap;" parent="WIyWlLk6GJQsqaUBKTNV-1" vertex="1">
          <mxGeometry x="171" y="730" width="100" height="60" as="geometry" />
        </mxCell>
        <mxCell id="-kFRYqSdJhcsByOaOmzl-40" value="" style="rounded=0;html=1;jettySize=auto;orthogonalLoop=1;fontSize=11;endArrow=block;endFill=0;endSize=8;strokeWidth=1;shadow=0;labelBackgroundColor=none;edgeStyle=orthogonalEdgeStyle;exitX=0.5;exitY=1;exitDx=0;exitDy=0;entryX=0.5;entryY=0;entryDx=0;entryDy=0;entryPerimeter=0;" parent="WIyWlLk6GJQsqaUBKTNV-1" source="-kFRYqSdJhcsByOaOmzl-36" target="-kFRYqSdJhcsByOaOmzl-39" edge="1">
          <mxGeometry relative="1" as="geometry">
            <mxPoint x="230.9999999999999" y="620" as="sourcePoint" />
            <mxPoint x="230.9999999999999" y="650" as="targetPoint" />
          </mxGeometry>
        </mxCell>
        <mxCell id="-kFRYqSdJhcsByOaOmzl-42" value="end" style="text;html=1;strokeColor=none;fillColor=none;align=center;verticalAlign=middle;whiteSpace=wrap;rounded=0;" parent="WIyWlLk6GJQsqaUBKTNV-1" vertex="1">
          <mxGeometry x="182" y="745" width="80" height="30" as="geometry" />
        </mxCell>
        <mxCell id="-kFRYqSdJhcsByOaOmzl-43" value="&lt;h1&gt;Flowchart of the Area of Triangle&lt;br&gt;&lt;/h1&gt;&lt;p align=&quot;left&quot;&gt;This flowchart is made as a way to calculate the area of a triangle. Created by Andika Fadila Pratama Polinema D4JTD 1A/04.&lt;/p&gt;" style="text;html=1;strokeColor=none;fillColor=#A9C4EB;spacing=5;spacingTop=-20;whiteSpace=wrap;overflow=hidden;rounded=0;" parent="WIyWlLk6GJQsqaUBKTNV-1" vertex="1">
          <mxGeometry x="30" y="100" width="220" height="150" as="geometry" />
        </mxCell>
      </root>
    </mxGraphModel>
  </diagram>
</mxfile>
